# xmcd
#
# Track frame offsets:
#	150
#	14545
#	28715
#	50425
#	63705
#	77742
#	90520
#	105539
#	123857
#	142161
#	158627
#	174761
#	186304
#
# Disc length: 2652 seconds
#
# Revision: 0
# Processed by: cddbd v1.5.1PL0 Copyright (c) Steve Scherf et al.
# Submitted via: dBpowerAMP V4.0
#
DISCID=a60a5a0d
DTITLE=Wylie and Wild West - Cowboy Ballads And Dance Songs
DYEAR=2004
DGENRE=Country
TTITLE0=Old Chisholm Trail
TTITLE1=Ten Thousand Cattle
TTITLE2=Sierry Peaks
TTITLE3=Cattle Call
TTITLE4=Desert Blues
TTITLE5=My Home's In Montana
TTITLE6=Cannonball Yodel
TTITLE7=The Strawberry Roan
TTITLE8=Good Bye Old Paint
TTITLE9=The High-Toned Dance
TTITLE10=The Streets Of Laredo
TTITLE11=The Musket Came Down from The Door
TTITLE12=Goodnight Irene
EXTD=This is a Western music style Album
EXTT0=
EXTT1=
EXTT2=
EXTT3=
EXTT4=
EXTT5=
EXTT6=
EXTT7=
EXTT8=
EXTT9=
EXTT10=
EXTT11=
EXTT12=
PLAYORDER=
